<svg width="116" height="37" viewBox="0 0 116 37" fill="none" xmlns="http://www.w3.org/2000/svg">
<mask id="path-1-inside-1_3854_711" fill="white">
<path d="M35.5372 0C27.6883 0 20.9818 4.8883 18.294 11.7861C16.3489 14.6842 14.2614 17.4867 12.5723 19C11.0617 20.3534 7.37828 22.8512 3.16608 25.5645C-1.95513 28.8633 0.322415 37 6.41412 37H96.7628C106.98 37 115.263 28.7173 115.263 18.5C115.263 8.28273 106.98 0 96.7628 0H35.5372Z"/>
</mask>
<path d="M35.5372 0C27.6883 0 20.9818 4.8883 18.294 11.7861C16.3489 14.6842 14.2614 17.4867 12.5723 19C11.0617 20.3534 7.37828 22.8512 3.16608 25.5645C-1.95513 28.8633 0.322415 37 6.41412 37H96.7628C106.98 37 115.263 28.7173 115.263 18.5C115.263 8.28273 106.98 0 96.7628 0H35.5372Z" fill="black"/>
<path d="M18.294 11.7861L19.2258 12.1492L19.1858 12.2519L19.1243 12.3434L18.294 11.7861ZM12.5723 19L13.2396 19.7448L13.2396 19.7448L12.5723 19ZM3.16608 25.5645L3.7076 26.4051L3.7076 26.4051L3.16608 25.5645ZM115.263 18.5L116.263 18.5L115.263 18.5ZM35.5372 0V1C28.1142 1 21.769 5.62243 19.2258 12.1492L18.294 11.7861L17.3622 11.4231C20.1946 4.15416 27.2624 -1 35.5372 -1V0ZM18.294 11.7861L19.1243 12.3434C17.1815 15.2382 15.0327 18.1383 13.2396 19.7448L12.5723 19L11.905 18.2552C13.4901 16.8351 15.5164 14.1302 17.4637 11.2289L18.294 11.7861ZM12.5723 19L13.2396 19.7448C11.6572 21.1625 7.89776 23.7061 3.7076 26.4051L3.16608 25.5645L2.62455 24.7238C6.85879 21.9963 10.4662 19.5442 11.9051 18.2552L12.5723 19ZM3.16608 25.5645L3.7076 26.4051C-0.618592 29.1918 1.37172 36 6.41412 36V37V38C-0.726893 38 -3.29167 28.5347 2.62455 24.7238L3.16608 25.5645ZM6.41412 37V36H96.7628V37V38H6.41412V37ZM96.7628 37V36C106.428 36 114.263 28.165 114.263 18.5L115.263 18.5L116.263 18.5C116.263 29.2696 107.532 38 96.7628 38V37ZM115.263 18.5H114.263C114.263 8.83502 106.428 1 96.7628 1V0V-1C107.532 -1 116.263 7.73045 116.263 18.5H115.263ZM96.7628 0V1H35.5372V0V-1H96.7628V0Z" fill="white" mask="url(#path-1-inside-1_3854_711)"/>
</svg>
