<svg width="115" height="37" viewBox="0 0 115 37" fill="none" xmlns="http://www.w3.org/2000/svg">
<mask id="path-1-inside-1_3854_717" fill="white">
<path d="M79.502 0C87.3471 0 94.0509 4.88366 96.7412 11.7764C98.6838 14.6781 100.77 17.4851 102.457 19C103.965 20.354 107.642 22.8537 111.847 25.5684C116.962 28.8707 114.682 37 108.594 37H18.5C8.28273 37 0 28.7173 0 18.5C0 8.28273 8.28273 0 18.5 0H79.502Z"/>
</mask>
<path d="M79.502 0C87.3471 0 94.0509 4.88366 96.7412 11.7764C98.6838 14.6781 100.77 17.4851 102.457 19C103.965 20.354 107.642 22.8537 111.847 25.5684C116.962 28.8707 114.682 37 108.594 37H18.5C8.28273 37 0 28.7173 0 18.5C0 8.28273 8.28273 0 18.5 0H79.502Z" fill="black"/>
<path d="M96.7412 11.7764L95.8097 12.14L95.8494 12.2418L95.9102 12.3327L96.7412 11.7764ZM102.457 19L101.789 19.7441L101.789 19.7441L102.457 19ZM111.847 25.5684L111.304 26.4085L111.304 26.4085L111.847 25.5684ZM18.5 37L18.5 38H18.5V37ZM79.502 0V1C86.9214 1 93.2641 5.61804 95.8097 12.14L96.7412 11.7764L97.6728 11.4128C94.8377 4.14929 87.7728 -1 79.502 -1V0ZM96.7412 11.7764L95.9102 12.3327C97.8506 15.2311 99.9979 18.1358 101.789 19.7441L102.457 19L103.125 18.2559C101.542 16.8343 99.517 14.1251 97.5722 11.2201L96.7412 11.7764ZM102.457 19L101.789 19.7441C103.369 21.1624 107.121 23.708 111.304 26.4085L111.847 25.5684L112.389 24.7282C108.162 21.9995 104.561 19.5455 103.125 18.2559L102.457 19ZM111.847 25.5684L111.304 26.4085C115.625 29.1982 113.633 36 108.594 36V37V38C115.731 38 118.298 28.5431 112.389 24.7282L111.847 25.5684ZM108.594 37V36H18.5V37V38H108.594V37ZM18.5 37L18.5 36C8.83502 36 1 28.165 1 18.5H0H-1C-1 29.2696 7.73045 38 18.5 38L18.5 37ZM0 18.5H1C1 8.83502 8.83502 1 18.5 1V0V-1C7.73045 -1 -1 7.73045 -1 18.5H0ZM18.5 0V1H79.502V0V-1H18.5V0Z" fill="white" mask="url(#path-1-inside-1_3854_717)"/>
</svg>
